<mxfile host="app.diagrams.net" agent="Mozilla/5.0 (Windows NT 10.0; Win64; x64) AppleWebKit/537.36 (KHTML, like Gecko) Chrome/134.0.0.0 Safari/537.36" version="26.1.1">
  <diagram name="Trang-1" id="ORxAmMaDdlTtxqpF9dGt">
    <mxGraphModel dx="994" dy="570" grid="0" gridSize="10" guides="1" tooltips="1" connect="1" arrows="1" fold="1" page="1" pageScale="1" pageWidth="850" pageHeight="1100" math="0" shadow="0">
      <root>
        <mxCell id="0" />
        <mxCell id="1" parent="0" />
        <mxCell id="LlOoHlAyNaWawW_gWCKP-1" value="Màn hình chính" style="rounded=0;whiteSpace=wrap;html=1;fillColor=#dae8fc;strokeColor=#6c8ebf;fontSize=14;" vertex="1" parent="1">
          <mxGeometry x="99" y="40" width="120" height="60" as="geometry" />
        </mxCell>
        <mxCell id="LlOoHlAyNaWawW_gWCKP-18" style="edgeStyle=orthogonalEdgeStyle;rounded=0;orthogonalLoop=1;jettySize=auto;html=1;entryX=0.5;entryY=0;entryDx=0;entryDy=0;exitX=1;exitY=0.5;exitDx=0;exitDy=0;fontSize=14;" edge="1" parent="1" source="LlOoHlAyNaWawW_gWCKP-2" target="LlOoHlAyNaWawW_gWCKP-9">
          <mxGeometry relative="1" as="geometry" />
        </mxCell>
        <mxCell id="LlOoHlAyNaWawW_gWCKP-37" style="edgeStyle=orthogonalEdgeStyle;rounded=0;orthogonalLoop=1;jettySize=auto;html=1;exitX=0.75;exitY=0;exitDx=0;exitDy=0;entryX=0.75;entryY=1;entryDx=0;entryDy=0;dashed=1;fontSize=14;" edge="1" parent="1" source="LlOoHlAyNaWawW_gWCKP-2" target="LlOoHlAyNaWawW_gWCKP-1">
          <mxGeometry relative="1" as="geometry" />
        </mxCell>
        <mxCell id="LlOoHlAyNaWawW_gWCKP-2" value="Thêm lịch học mới&amp;nbsp;" style="rounded=0;whiteSpace=wrap;html=1;fillColor=#dae8fc;strokeColor=#6c8ebf;fontSize=14;" vertex="1" parent="1">
          <mxGeometry x="99" y="220" width="120" height="60" as="geometry" />
        </mxCell>
        <mxCell id="LlOoHlAyNaWawW_gWCKP-12" style="edgeStyle=orthogonalEdgeStyle;rounded=0;orthogonalLoop=1;jettySize=auto;html=1;entryX=0;entryY=0.5;entryDx=0;entryDy=0;fontSize=14;" edge="1" parent="1" target="LlOoHlAyNaWawW_gWCKP-4">
          <mxGeometry relative="1" as="geometry">
            <mxPoint x="390" y="71" as="sourcePoint" />
          </mxGeometry>
        </mxCell>
        <mxCell id="LlOoHlAyNaWawW_gWCKP-13" style="edgeStyle=orthogonalEdgeStyle;rounded=0;orthogonalLoop=1;jettySize=auto;html=1;entryX=0;entryY=0.5;entryDx=0;entryDy=0;fontSize=14;" edge="1" parent="1" source="LlOoHlAyNaWawW_gWCKP-3" target="LlOoHlAyNaWawW_gWCKP-6">
          <mxGeometry relative="1" as="geometry" />
        </mxCell>
        <mxCell id="LlOoHlAyNaWawW_gWCKP-30" style="edgeStyle=orthogonalEdgeStyle;rounded=0;orthogonalLoop=1;jettySize=auto;html=1;entryX=0;entryY=0.5;entryDx=0;entryDy=0;fontSize=14;" edge="1" parent="1" source="LlOoHlAyNaWawW_gWCKP-3" target="LlOoHlAyNaWawW_gWCKP-29">
          <mxGeometry relative="1" as="geometry" />
        </mxCell>
        <mxCell id="LlOoHlAyNaWawW_gWCKP-3" value="Xem lịch học&amp;nbsp;" style="rounded=0;whiteSpace=wrap;html=1;fillColor=#dae8fc;strokeColor=#6c8ebf;fontSize=14;" vertex="1" parent="1">
          <mxGeometry x="270" y="40" width="120" height="60" as="geometry" />
        </mxCell>
        <mxCell id="LlOoHlAyNaWawW_gWCKP-4" value="module hiện thị Lịch&amp;nbsp;" style="rounded=1;whiteSpace=wrap;html=1;fontSize=14;" vertex="1" parent="1">
          <mxGeometry x="458" y="40" width="120" height="60" as="geometry" />
        </mxCell>
        <mxCell id="LlOoHlAyNaWawW_gWCKP-15" style="edgeStyle=orthogonalEdgeStyle;rounded=0;orthogonalLoop=1;jettySize=auto;html=1;entryX=0;entryY=0.5;entryDx=0;entryDy=0;fontSize=14;" edge="1" parent="1" source="LlOoHlAyNaWawW_gWCKP-6" target="LlOoHlAyNaWawW_gWCKP-7">
          <mxGeometry relative="1" as="geometry" />
        </mxCell>
        <mxCell id="LlOoHlAyNaWawW_gWCKP-16" style="edgeStyle=orthogonalEdgeStyle;rounded=0;orthogonalLoop=1;jettySize=auto;html=1;exitX=1;exitY=0.5;exitDx=0;exitDy=0;entryX=0;entryY=0.5;entryDx=0;entryDy=0;fontSize=14;" edge="1" parent="1" source="LlOoHlAyNaWawW_gWCKP-6" target="LlOoHlAyNaWawW_gWCKP-8">
          <mxGeometry relative="1" as="geometry" />
        </mxCell>
        <mxCell id="LlOoHlAyNaWawW_gWCKP-6" value="Màn hình chi tiết lịch&amp;nbsp;" style="rounded=0;whiteSpace=wrap;html=1;fillColor=#dae8fc;strokeColor=#6c8ebf;fontSize=14;" vertex="1" parent="1">
          <mxGeometry x="388" y="187" width="120" height="60" as="geometry" />
        </mxCell>
        <mxCell id="LlOoHlAyNaWawW_gWCKP-7" value="Chỉnh sửa lịch&amp;nbsp;" style="rounded=0;whiteSpace=wrap;html=1;fontSize=14;" vertex="1" parent="1">
          <mxGeometry x="559" y="187" width="120" height="60" as="geometry" />
        </mxCell>
        <mxCell id="LlOoHlAyNaWawW_gWCKP-24" style="edgeStyle=orthogonalEdgeStyle;rounded=0;orthogonalLoop=1;jettySize=auto;html=1;fontSize=14;entryX=1;entryY=0.5;entryDx=0;entryDy=0;entryPerimeter=0;" edge="1" parent="1" source="LlOoHlAyNaWawW_gWCKP-8" target="LlOoHlAyNaWawW_gWCKP-47">
          <mxGeometry relative="1" as="geometry">
            <mxPoint x="727" y="290" as="targetPoint" />
            <Array as="points">
              <mxPoint x="725" y="290" />
              <mxPoint x="725" y="524" />
            </Array>
          </mxGeometry>
        </mxCell>
        <mxCell id="LlOoHlAyNaWawW_gWCKP-8" value="Xóa lịch&amp;nbsp;" style="rounded=0;whiteSpace=wrap;html=1;fontSize=14;" vertex="1" parent="1">
          <mxGeometry x="559" y="260" width="120" height="60" as="geometry" />
        </mxCell>
        <mxCell id="LlOoHlAyNaWawW_gWCKP-43" style="edgeStyle=orthogonalEdgeStyle;rounded=0;orthogonalLoop=1;jettySize=auto;html=1;entryX=0.5;entryY=0;entryDx=0;entryDy=0;fontSize=14;" edge="1" parent="1" source="LlOoHlAyNaWawW_gWCKP-9" target="LlOoHlAyNaWawW_gWCKP-42">
          <mxGeometry relative="1" as="geometry" />
        </mxCell>
        <mxCell id="LlOoHlAyNaWawW_gWCKP-9" value="module Nhập Liệu&amp;nbsp;" style="rounded=1;whiteSpace=wrap;html=1;fontSize=14;" vertex="1" parent="1">
          <mxGeometry x="179" y="330" width="120" height="60" as="geometry" />
        </mxCell>
        <mxCell id="LlOoHlAyNaWawW_gWCKP-10" value="module lưu trữ&amp;nbsp;" style="rounded=0;whiteSpace=wrap;html=1;fontSize=14;" vertex="1" parent="1">
          <mxGeometry x="20" y="330" width="120" height="60" as="geometry" />
        </mxCell>
        <mxCell id="LlOoHlAyNaWawW_gWCKP-22" style="edgeStyle=orthogonalEdgeStyle;rounded=0;orthogonalLoop=1;jettySize=auto;html=1;entryX=1;entryY=0.5;entryDx=0;entryDy=0;entryPerimeter=0;fontSize=14;" edge="1" parent="1" source="LlOoHlAyNaWawW_gWCKP-7" target="LlOoHlAyNaWawW_gWCKP-47">
          <mxGeometry relative="1" as="geometry">
            <mxPoint x="728" y="217.5" as="targetPoint" />
            <Array as="points">
              <mxPoint x="724" y="217" />
              <mxPoint x="724" y="524" />
            </Array>
          </mxGeometry>
        </mxCell>
        <mxCell id="LlOoHlAyNaWawW_gWCKP-25" value="" style="endArrow=classic;startArrow=classic;html=1;rounded=0;entryX=0;entryY=0.5;entryDx=0;entryDy=0;exitX=0.5;exitY=0;exitDx=0;exitDy=0;edgeStyle=orthogonalEdgeStyle;fontSize=14;" edge="1" parent="1" source="LlOoHlAyNaWawW_gWCKP-10" target="LlOoHlAyNaWawW_gWCKP-2">
          <mxGeometry width="50" height="50" relative="1" as="geometry">
            <mxPoint x="14" y="275" as="sourcePoint" />
            <mxPoint x="64" y="225" as="targetPoint" />
          </mxGeometry>
        </mxCell>
        <mxCell id="LlOoHlAyNaWawW_gWCKP-27" value="" style="endArrow=classic;startArrow=classic;html=1;rounded=0;entryX=1;entryY=0.5;entryDx=0;entryDy=0;entryPerimeter=0;exitX=1;exitY=0.5;exitDx=0;exitDy=0;fontSize=14;edgeStyle=orthogonalEdgeStyle;" edge="1" parent="1" source="LlOoHlAyNaWawW_gWCKP-4" target="LlOoHlAyNaWawW_gWCKP-47">
          <mxGeometry width="50" height="50" relative="1" as="geometry">
            <mxPoint x="564" y="65" as="sourcePoint" />
            <mxPoint x="632" y="70" as="targetPoint" />
            <Array as="points">
              <mxPoint x="724" y="70" />
              <mxPoint x="724" y="524" />
            </Array>
          </mxGeometry>
        </mxCell>
        <mxCell id="LlOoHlAyNaWawW_gWCKP-41" style="edgeStyle=orthogonalEdgeStyle;rounded=0;orthogonalLoop=1;jettySize=auto;html=1;exitX=1;exitY=0.5;exitDx=0;exitDy=0;entryX=0;entryY=0.5;entryDx=0;entryDy=0;fontSize=14;" edge="1" parent="1" source="LlOoHlAyNaWawW_gWCKP-29" target="LlOoHlAyNaWawW_gWCKP-40">
          <mxGeometry relative="1" as="geometry" />
        </mxCell>
        <mxCell id="LlOoHlAyNaWawW_gWCKP-29" value="Module lọc lịch" style="rounded=0;whiteSpace=wrap;html=1;fillColor=#dae8fc;strokeColor=#6c8ebf;fontSize=14;" vertex="1" parent="1">
          <mxGeometry x="383" y="345" width="120" height="60" as="geometry" />
        </mxCell>
        <mxCell id="LlOoHlAyNaWawW_gWCKP-33" value="" style="endArrow=classic;startArrow=classic;html=1;rounded=0;entryX=0.5;entryY=1;entryDx=0;entryDy=0;fontSize=14;exitX=0;exitY=0.5;exitDx=0;exitDy=0;exitPerimeter=0;edgeStyle=orthogonalEdgeStyle;" edge="1" parent="1" source="LlOoHlAyNaWawW_gWCKP-47" target="LlOoHlAyNaWawW_gWCKP-10">
          <mxGeometry width="50" height="50" relative="1" as="geometry">
            <mxPoint x="80" y="443" as="sourcePoint" />
            <mxPoint x="69" y="398" as="targetPoint" />
          </mxGeometry>
        </mxCell>
        <mxCell id="LlOoHlAyNaWawW_gWCKP-34" value="" style="endArrow=classic;html=1;rounded=0;exitX=0.25;exitY=1;exitDx=0;exitDy=0;entryX=0.25;entryY=0;entryDx=0;entryDy=0;fontSize=14;" edge="1" parent="1" source="LlOoHlAyNaWawW_gWCKP-1" target="LlOoHlAyNaWawW_gWCKP-2">
          <mxGeometry width="50" height="50" relative="1" as="geometry">
            <mxPoint x="177" y="168" as="sourcePoint" />
            <mxPoint x="227" y="118" as="targetPoint" />
          </mxGeometry>
        </mxCell>
        <mxCell id="LlOoHlAyNaWawW_gWCKP-40" value="Màn hình chi tiết lịch&amp;nbsp;" style="rounded=0;whiteSpace=wrap;html=1;fontSize=14;" vertex="1" parent="1">
          <mxGeometry x="556" y="345" width="120" height="60" as="geometry" />
        </mxCell>
        <mxCell id="LlOoHlAyNaWawW_gWCKP-42" value="module Validation" style="rounded=1;whiteSpace=wrap;html=1;fontSize=14;" vertex="1" parent="1">
          <mxGeometry x="179" y="425" width="120" height="60" as="geometry" />
        </mxCell>
        <mxCell id="LlOoHlAyNaWawW_gWCKP-44" value="" style="endArrow=classic;html=1;rounded=0;exitX=1;exitY=0.25;exitDx=0;exitDy=0;entryX=0;entryY=0.25;entryDx=0;entryDy=0;fontSize=14;" edge="1" parent="1" source="LlOoHlAyNaWawW_gWCKP-1" target="LlOoHlAyNaWawW_gWCKP-3">
          <mxGeometry width="50" height="50" relative="1" as="geometry">
            <mxPoint x="246" y="63" as="sourcePoint" />
            <mxPoint x="296" y="13" as="targetPoint" />
          </mxGeometry>
        </mxCell>
        <mxCell id="LlOoHlAyNaWawW_gWCKP-45" value="" style="endArrow=classic;html=1;rounded=0;exitX=0;exitY=0.75;exitDx=0;exitDy=0;entryX=1;entryY=0.75;entryDx=0;entryDy=0;dashed=1;fontSize=14;" edge="1" parent="1" source="LlOoHlAyNaWawW_gWCKP-3" target="LlOoHlAyNaWawW_gWCKP-1">
          <mxGeometry width="50" height="50" relative="1" as="geometry">
            <mxPoint x="229" y="65" as="sourcePoint" />
            <mxPoint x="280" y="65" as="targetPoint" />
          </mxGeometry>
        </mxCell>
        <mxCell id="LlOoHlAyNaWawW_gWCKP-47" value="FireBase" style="shape=cylinder3;whiteSpace=wrap;html=1;boundedLbl=1;backgroundOutline=1;size=15;fillColor=#fff2cc;strokeColor=#d6b656;fontSize=22;" vertex="1" parent="1">
          <mxGeometry x="474" y="438" width="150" height="172" as="geometry" />
        </mxCell>
        <mxCell id="LlOoHlAyNaWawW_gWCKP-48" value="" style="endArrow=classic;startArrow=classic;html=1;rounded=0;entryX=0.5;entryY=1;entryDx=0;entryDy=0;fontSize=14;edgeStyle=orthogonalEdgeStyle;" edge="1" parent="1" source="LlOoHlAyNaWawW_gWCKP-47">
          <mxGeometry width="50" height="50" relative="1" as="geometry">
            <mxPoint x="178" y="542" as="sourcePoint" />
            <mxPoint x="239" y="484" as="targetPoint" />
            <Array as="points">
              <mxPoint x="236" y="524" />
              <mxPoint x="236" y="485" />
            </Array>
          </mxGeometry>
        </mxCell>
      </root>
    </mxGraphModel>
  </diagram>
</mxfile>
